<mxfile host="app.diagrams.net" modified="2024-01-06T20:32:06.534Z" agent="Mozilla/5.0 (Windows NT 10.0; Win64; x64) AppleWebKit/537.36 (KHTML, like Gecko) Chrome/120.0.0.0 Safari/537.36" version="22.1.17" etag="48aoui7-oPgGl2I0iZro" type="github">
  <diagram name="Page-1" id="IJUHQjV1K5Oq-9IEp2u4">
    <mxGraphModel>
      <root>
        <mxCell id="0" />
        <mxCell id="1" parent="0" />
      </root>
    </mxGraphModel>
  </diagram>
</mxfile>
